<svg xmlns="http://www.w3.org/2000/svg" xmlns:xlink="http://www.w3.org/1999/xlink" width="500" zoomAndPan="magnify" viewBox="0 0 375 374.999991" height="500" preserveAspectRatio="xMidYMid meet" version="1.0"><defs><g/><clipPath id="8204595f1c"><path d="M 102.320312 55.636719 L 286.070312 55.636719 L 286.070312 220.636719 L 102.320312 220.636719 Z M 102.320312 55.636719 " clip-rule="nonzero"/></clipPath><clipPath id="d0e1c26092"><path d="M 168.003906 112.722656 L 194.40625 112.722656 L 194.40625 139.125 L 168.003906 139.125 Z M 168.003906 112.722656 " clip-rule="nonzero"/></clipPath><clipPath id="8d39bc4dd9"><path d="M 181.203125 112.722656 C 173.914062 112.722656 168.003906 118.632812 168.003906 125.925781 C 168.003906 133.214844 173.914062 139.125 181.203125 139.125 C 188.496094 139.125 194.40625 133.214844 194.40625 125.925781 C 194.40625 118.632812 188.496094 112.722656 181.203125 112.722656 Z M 181.203125 112.722656 " clip-rule="nonzero"/></clipPath><clipPath id="b1f7b4e3aa"><path d="M 168.945312 159.222656 L 195.347656 159.222656 L 195.347656 185.625 L 168.945312 185.625 Z M 168.945312 159.222656 " clip-rule="nonzero"/></clipPath><clipPath id="55fc7dc230"><path d="M 182.144531 159.222656 C 174.855469 159.222656 168.945312 165.132812 168.945312 172.425781 C 168.945312 179.714844 174.855469 185.625 182.144531 185.625 C 189.4375 185.625 195.347656 179.714844 195.347656 172.425781 C 195.347656 165.132812 189.4375 159.222656 182.144531 159.222656 Z M 182.144531 159.222656 " clip-rule="nonzero"/></clipPath><clipPath id="1caabecacf"><path d="M 190.515625 136.304688 L 216.917969 136.304688 L 216.917969 162.707031 L 190.515625 162.707031 Z M 190.515625 136.304688 " clip-rule="nonzero"/></clipPath><clipPath id="75b8375990"><path d="M 203.71875 136.304688 C 196.425781 136.304688 190.515625 142.214844 190.515625 149.507812 C 190.515625 156.796875 196.425781 162.707031 203.71875 162.707031 C 211.007812 162.707031 216.917969 156.796875 216.917969 149.507812 C 216.917969 142.214844 211.007812 136.304688 203.71875 136.304688 Z M 203.71875 136.304688 " clip-rule="nonzero"/></clipPath></defs><rect x="-37.5" width="450" fill="#ffffff" y="-37.499999" height="449.999989" fill-opacity="1"/><rect x="-37.5" width="450" fill="#141034" y="-37.499999" height="449.999989" fill-opacity="1"/><g clip-path="url(#8204595f1c)"><path fill="#14b7dc" d="M 189.578125 162.546875 L 193.871094 157.671875 C 195.90625 160.144531 198.742188 161.746094 202.085938 162.179688 L 202.085938 186.261719 L 178.671875 199.648438 L 155.332031 213.179688 L 131.988281 199.722656 L 108.648438 186.261719 L 108.648438 132.28125 L 121.519531 124.785156 L 121.519531 117.511719 L 102.320312 128.644531 L 102.320312 189.898438 L 155.332031 220.527344 L 208.339844 189.898438 L 208.339844 161.308594 C 212.921875 159.417969 216.046875 154.90625 216.046875 149.667969 C 216.046875 142.757812 210.375 137.082031 203.46875 137.082031 C 199.394531 137.082031 195.761719 138.972656 193.433594 141.957031 L 189.070312 136.9375 C 192.195312 134.828125 194.160156 131.40625 194.523438 127.550781 L 209.792969 118.675781 L 233.136719 105.214844 L 279.816406 132.136719 L 279.816406 186.117188 L 256.402344 199.648438 L 233.0625 213.109375 L 209.722656 199.648438 L 206.085938 197.613281 L 199.757812 201.25 L 233.0625 220.457031 L 286.070312 189.828125 L 286.070312 128.570312 L 233.0625 97.941406 L 193.140625 121.003906 C 191.105469 116.855469 186.816406 113.945312 181.871094 113.945312 C 174.964844 113.945312 169.292969 119.621094 169.292969 126.53125 C 169.292969 133.226562 174.601562 138.828125 181.363281 139.121094 L 181.363281 160 C 176.855469 160.21875 173.074219 162.691406 170.890625 166.402344 L 155.183594 157.308594 L 131.84375 143.847656 L 131.84375 89.867188 L 155.183594 76.40625 L 178.527344 62.949219 L 201.867188 76.40625 L 225.210938 89.867188 L 225.210938 97.652344 L 231.535156 94.011719 L 231.535156 86.226562 L 178.597656 55.746094 L 125.589844 86.375 L 125.589844 147.632812 L 169.292969 172.949219 C 169.363281 179.859375 174.964844 185.460938 181.871094 185.460938 C 188.777344 185.460938 194.449219 179.789062 194.449219 172.875 C 194.597656 168.511719 192.558594 164.875 189.578125 162.546875 Z M 193.214844 156.726562 L 188.707031 161.816406 C 186.886719 160.652344 184.851562 160 182.597656 159.925781 L 182.597656 139.121094 C 184.632812 139.046875 186.523438 138.464844 188.269531 137.519531 L 192.996094 142.828125 C 191.6875 144.722656 191.105469 147.121094 191.105469 149.523438 C 190.960938 152.289062 191.832031 154.761719 193.214844 156.726562 Z M 193.214844 156.726562 " fill-opacity="1" fill-rule="evenodd"/></g><g clip-path="url(#d0e1c26092)"><g clip-path="url(#8d39bc4dd9)"><path fill="#6ee4ff" d="M 168.003906 112.722656 L 194.40625 112.722656 L 194.40625 139.125 L 168.003906 139.125 Z M 168.003906 112.722656 " fill-opacity="1" fill-rule="nonzero"/></g></g><g clip-path="url(#b1f7b4e3aa)"><g clip-path="url(#55fc7dc230)"><path fill="#6ee4ff" d="M 168.945312 159.222656 L 195.347656 159.222656 L 195.347656 185.625 L 168.945312 185.625 Z M 168.945312 159.222656 " fill-opacity="1" fill-rule="nonzero"/></g></g><g clip-path="url(#1caabecacf)"><g clip-path="url(#75b8375990)"><path fill="#6ee4ff" d="M 190.515625 136.304688 L 216.917969 136.304688 L 216.917969 162.707031 L 190.515625 162.707031 Z M 190.515625 136.304688 " fill-opacity="1" fill-rule="nonzero"/></g></g><g fill="#06ecfc" fill-opacity="1"><g transform="translate(52.332658, 284.093449)"><g><path d="M 4.8125 -36.59375 L 19.8125 -36.59375 C 25.28125 -36.59375 29.800781 -34.863281 33.375 -31.40625 C 36.945312 -27.957031 38.734375 -23.582031 38.734375 -18.28125 C 38.734375 -12.988281 36.9375 -8.617188 33.34375 -5.171875 C 29.757812 -1.722656 25.195312 0 19.65625 0 L 4.8125 0 Z M 10.96875 -31.046875 L 10.96875 -5.546875 L 19.96875 -5.546875 C 23.550781 -5.546875 26.535156 -6.738281 28.921875 -9.125 C 31.316406 -11.507812 32.515625 -14.546875 32.515625 -18.234375 C 32.515625 -21.929688 31.285156 -24.988281 28.828125 -27.40625 C 26.367188 -29.832031 23.328125 -31.046875 19.703125 -31.046875 Z M 10.96875 -31.046875 "/></g></g></g><g fill="#06ecfc" fill-opacity="1"><g transform="translate(93.874685, 284.093449)"><g><path d="M 36.53125 0 L 30.359375 0 L 30.359375 -15.15625 L 10.96875 -15.15625 L 10.96875 0 L 4.8125 0 L 4.8125 -36.59375 L 10.96875 -36.59375 L 10.96875 -20.703125 L 30.359375 -20.703125 L 30.359375 -36.59375 L 36.53125 -36.59375 Z M 36.53125 0 "/></g></g></g><g fill="#06ecfc" fill-opacity="1"><g transform="translate(136.252773, 284.093449)"><g><path d="M 35.90625 -36.59375 L 35.90625 -15.15625 C 35.90625 -10.382812 34.492188 -6.617188 31.671875 -3.859375 C 28.847656 -1.109375 24.960938 0.265625 20.015625 0.265625 C 15.066406 0.265625 11.171875 -1.109375 8.328125 -3.859375 C 5.492188 -6.617188 4.078125 -10.382812 4.078125 -15.15625 L 4.078125 -36.59375 L 10.25 -36.59375 L 10.25 -15.15625 C 10.25 -12.09375 11.125 -9.679688 12.875 -7.921875 C 14.632812 -6.160156 17.03125 -5.28125 20.0625 -5.28125 C 23.0625 -5.28125 25.421875 -6.148438 27.140625 -7.890625 C 28.867188 -9.628906 29.734375 -12.050781 29.734375 -15.15625 L 29.734375 -36.59375 Z M 35.90625 -36.59375 "/></g></g></g><g fill="#06ecfc" fill-opacity="1"><g transform="translate(177.220009, 284.093449)"><g><path d="M 29.796875 -31.046875 L 18.1875 -31.046875 L 18.1875 0 L 12.015625 0 L 12.015625 -31.046875 L 0.46875 -31.046875 L 0.46875 -36.59375 L 29.796875 -36.59375 Z M 29.796875 -31.046875 "/></g></g></g><g fill="#06ecfc" fill-opacity="1"><g transform="translate(208.520273, 284.093449)"><g><path d="M 30.9375 -31.046875 L 10.96875 -31.046875 L 10.96875 -21.171875 L 28.84375 -21.171875 L 28.84375 -15.625 L 10.96875 -15.625 L 10.96875 -5.546875 L 31.5625 -5.546875 L 31.5625 0 L 4.8125 0 L 4.8125 -36.59375 L 30.9375 -36.59375 Z M 30.9375 -31.046875 "/></g></g></g><g fill="#06ecfc" fill-opacity="1"><g transform="translate(243.844085, 284.093449)"><g><path d="M 21.015625 -36.75 C 23.585938 -36.75 26.101562 -36.25 28.5625 -35.25 C 31.019531 -34.257812 33.132812 -32.875 34.90625 -31.09375 L 31.3125 -26.609375 C 29.988281 -28.035156 28.421875 -29.164062 26.609375 -30 C 24.796875 -30.832031 22.960938 -31.25 21.109375 -31.25 C 17.453125 -31.25 14.359375 -30.003906 11.828125 -27.515625 C 9.304688 -25.023438 8.046875 -21.984375 8.046875 -18.390625 C 8.046875 -14.773438 9.304688 -11.71875 11.828125 -9.21875 C 14.359375 -6.726562 17.453125 -5.484375 21.109375 -5.484375 C 24.910156 -5.484375 28.3125 -6.929688 31.3125 -9.828125 L 34.96875 -5.75 C 33.082031 -3.90625 30.882812 -2.441406 28.375 -1.359375 C 25.863281 -0.273438 23.335938 0.265625 20.796875 0.265625 C 15.429688 0.265625 10.921875 -1.519531 7.265625 -5.09375 C 3.609375 -8.664062 1.78125 -13.082031 1.78125 -18.34375 C 1.78125 -23.539062 3.632812 -27.90625 7.34375 -31.4375 C 11.050781 -34.976562 15.609375 -36.75 21.015625 -36.75 Z M 21.015625 -36.75 "/></g></g></g><g fill="#06ecfc" fill-opacity="1"><g transform="translate(281.310311, 284.093449)"><g><path d="M 36.53125 0 L 30.359375 0 L 30.359375 -15.15625 L 10.96875 -15.15625 L 10.96875 0 L 4.8125 0 L 4.8125 -36.59375 L 10.96875 -36.59375 L 10.96875 -20.703125 L 30.359375 -20.703125 L 30.359375 -36.59375 L 36.53125 -36.59375 Z M 36.53125 0 "/></g></g></g><g fill="#ffffff" fill-opacity="1"><g transform="translate(88.604573, 323.22367)"><g><path d="M 8.671875 -16.25 C 10.296875 -16.25 11.648438 -15.832031 12.734375 -15 C 13.828125 -14.164062 14.582031 -13.023438 15 -11.578125 L 12.890625 -11.09375 C 12.554688 -12.164062 12.046875 -12.988281 11.359375 -13.5625 C 10.671875 -14.144531 9.765625 -14.4375 8.640625 -14.4375 C 6.972656 -14.4375 5.671875 -13.882812 4.734375 -12.78125 C 3.796875 -11.6875 3.328125 -10.125 3.328125 -8.09375 C 3.328125 -5.988281 3.78125 -4.367188 4.6875 -3.234375 C 5.601562 -2.109375 6.878906 -1.546875 8.515625 -1.546875 C 9.679688 -1.546875 10.671875 -1.890625 11.484375 -2.578125 C 12.304688 -3.265625 12.859375 -4.269531 13.140625 -5.59375 L 15.265625 -5.0625 C 14.816406 -3.382812 14.019531 -2.078125 12.875 -1.140625 C 11.726562 -0.203125 10.300781 0.265625 8.59375 0.265625 C 7.414062 0.265625 6.410156 0.109375 5.578125 -0.203125 C 4.742188 -0.515625 4.035156 -0.972656 3.453125 -1.578125 C 2.648438 -2.429688 2.0625 -3.421875 1.6875 -4.546875 C 1.320312 -5.679688 1.140625 -6.863281 1.140625 -8.09375 C 1.140625 -9.75 1.453125 -11.1875 2.078125 -12.40625 C 2.710938 -13.632812 3.597656 -14.582031 4.734375 -15.25 C 5.878906 -15.914062 7.191406 -16.25 8.671875 -16.25 Z M 8.671875 -16.25 "/></g></g></g><g fill="#ffffff" fill-opacity="1"><g transform="translate(110.694392, 323.22367)"><g><path d="M 8.40625 -16.25 C 10 -16.25 11.394531 -15.90625 12.59375 -15.21875 C 13.789062 -14.53125 14.710938 -13.5625 15.359375 -12.3125 C 16.003906 -11.0625 16.328125 -9.613281 16.328125 -7.96875 C 16.328125 -6.332031 15.992188 -4.890625 15.328125 -3.640625 C 14.671875 -2.390625 13.769531 -1.425781 12.625 -0.75 C 11.476562 -0.0703125 10.203125 0.265625 8.796875 0.265625 C 7.242188 0.265625 5.882812 -0.0859375 4.71875 -0.796875 C 3.550781 -1.515625 2.644531 -2.488281 2 -3.71875 C 1.363281 -4.945312 1.046875 -6.300781 1.046875 -7.78125 C 1.046875 -9.476562 1.363281 -10.96875 2 -12.25 C 2.644531 -13.53125 3.523438 -14.515625 4.640625 -15.203125 C 5.753906 -15.898438 7.007812 -16.25 8.40625 -16.25 Z M 3.234375 -7.75 C 3.234375 -6.507812 3.460938 -5.421875 3.921875 -4.484375 C 4.390625 -3.546875 5.035156 -2.820312 5.859375 -2.3125 C 6.679688 -1.800781 7.617188 -1.546875 8.671875 -1.546875 C 9.765625 -1.546875 10.722656 -1.800781 11.546875 -2.3125 C 12.367188 -2.820312 13.003906 -3.5625 13.453125 -4.53125 C 13.910156 -5.5 14.140625 -6.644531 14.140625 -7.96875 C 14.140625 -9.269531 13.910156 -10.410156 13.453125 -11.390625 C 13.003906 -12.378906 12.367188 -13.132812 11.546875 -13.65625 C 10.734375 -14.175781 9.804688 -14.4375 8.765625 -14.4375 C 7.015625 -14.4375 5.65625 -13.847656 4.6875 -12.671875 C 3.71875 -11.492188 3.234375 -9.851562 3.234375 -7.75 Z M 3.234375 -7.75 "/></g></g></g><g fill="#ffffff" fill-opacity="1"><g transform="translate(134.03371, 323.22367)"><g><path d="M 12.3125 -3.4375 L 12.3125 -15.96875 L 14.34375 -15.96875 L 14.34375 0 L 12.1875 0 L 3.796875 -12.546875 L 3.796875 0 L 1.765625 0 L 1.765625 -15.96875 L 3.921875 -15.96875 Z M 12.3125 -3.4375 "/></g></g></g><g fill="#ffffff" fill-opacity="1"><g transform="translate(156.123527, 323.22367)"><g><path d="M 12.3125 -3.4375 L 12.3125 -15.96875 L 14.34375 -15.96875 L 14.34375 0 L 12.1875 0 L 3.796875 -12.546875 L 3.796875 0 L 1.765625 0 L 1.765625 -15.96875 L 3.921875 -15.96875 Z M 12.3125 -3.4375 "/></g></g></g><g fill="#ffffff" fill-opacity="1"><g transform="translate(178.213346, 323.22367)"><g><path d="M 13.328125 -14.09375 L 3.875 -14.09375 L 3.875 -9.1875 L 12.71875 -9.1875 L 12.71875 -7.3125 L 3.875 -7.3125 L 3.875 -1.875 L 13.671875 -1.875 L 13.671875 0 L 1.765625 0 L 1.765625 -15.96875 L 13.328125 -15.96875 Z M 13.328125 -14.09375 "/></g></g></g><g fill="#ffffff" fill-opacity="1"><g transform="translate(199.075964, 323.22367)"><g><path d="M 8.671875 -16.25 C 10.296875 -16.25 11.648438 -15.832031 12.734375 -15 C 13.828125 -14.164062 14.582031 -13.023438 15 -11.578125 L 12.890625 -11.09375 C 12.554688 -12.164062 12.046875 -12.988281 11.359375 -13.5625 C 10.671875 -14.144531 9.765625 -14.4375 8.640625 -14.4375 C 6.972656 -14.4375 5.671875 -13.882812 4.734375 -12.78125 C 3.796875 -11.6875 3.328125 -10.125 3.328125 -8.09375 C 3.328125 -5.988281 3.78125 -4.367188 4.6875 -3.234375 C 5.601562 -2.109375 6.878906 -1.546875 8.515625 -1.546875 C 9.679688 -1.546875 10.671875 -1.890625 11.484375 -2.578125 C 12.304688 -3.265625 12.859375 -4.269531 13.140625 -5.59375 L 15.265625 -5.0625 C 14.816406 -3.382812 14.019531 -2.078125 12.875 -1.140625 C 11.726562 -0.203125 10.300781 0.265625 8.59375 0.265625 C 7.414062 0.265625 6.410156 0.109375 5.578125 -0.203125 C 4.742188 -0.515625 4.035156 -0.972656 3.453125 -1.578125 C 2.648438 -2.429688 2.0625 -3.421875 1.6875 -4.546875 C 1.320312 -5.679688 1.140625 -6.863281 1.140625 -8.09375 C 1.140625 -9.75 1.453125 -11.1875 2.078125 -12.40625 C 2.710938 -13.632812 3.597656 -14.582031 4.734375 -15.25 C 5.878906 -15.914062 7.191406 -16.25 8.671875 -16.25 Z M 8.671875 -16.25 "/></g></g></g><g fill="#ffffff" fill-opacity="1"><g transform="translate(221.165783, 323.22367)"><g><path d="M 13.171875 -14.09375 L 7.875 -14.09375 L 7.875 0 L 5.75 0 L 5.75 -14.09375 L 0.484375 -14.09375 L 0.484375 -15.96875 L 13.171875 -15.96875 Z M 13.171875 -14.09375 "/></g></g></g><g fill="#ffffff" fill-opacity="1"><g transform="translate(240.778906, 323.22367)"><g><path d="M 4.171875 0 L 2.046875 0 L 2.046875 -15.96875 L 4.171875 -15.96875 Z M 4.171875 0 "/></g></g></g><g fill="#ffffff" fill-opacity="1"><g transform="translate(252.961931, 323.22367)"><g><path d="M 8.40625 -16.25 C 10 -16.25 11.394531 -15.90625 12.59375 -15.21875 C 13.789062 -14.53125 14.710938 -13.5625 15.359375 -12.3125 C 16.003906 -11.0625 16.328125 -9.613281 16.328125 -7.96875 C 16.328125 -6.332031 15.992188 -4.890625 15.328125 -3.640625 C 14.671875 -2.390625 13.769531 -1.425781 12.625 -0.75 C 11.476562 -0.0703125 10.203125 0.265625 8.796875 0.265625 C 7.242188 0.265625 5.882812 -0.0859375 4.71875 -0.796875 C 3.550781 -1.515625 2.644531 -2.488281 2 -3.71875 C 1.363281 -4.945312 1.046875 -6.300781 1.046875 -7.78125 C 1.046875 -9.476562 1.363281 -10.96875 2 -12.25 C 2.644531 -13.53125 3.523438 -14.515625 4.640625 -15.203125 C 5.753906 -15.898438 7.007812 -16.25 8.40625 -16.25 Z M 3.234375 -7.75 C 3.234375 -6.507812 3.460938 -5.421875 3.921875 -4.484375 C 4.390625 -3.546875 5.035156 -2.820312 5.859375 -2.3125 C 6.679688 -1.800781 7.617188 -1.546875 8.671875 -1.546875 C 9.765625 -1.546875 10.722656 -1.800781 11.546875 -2.3125 C 12.367188 -2.820312 13.003906 -3.5625 13.453125 -4.53125 C 13.910156 -5.5 14.140625 -6.644531 14.140625 -7.96875 C 14.140625 -9.269531 13.910156 -10.410156 13.453125 -11.390625 C 13.003906 -12.378906 12.367188 -13.132812 11.546875 -13.65625 C 10.734375 -14.175781 9.804688 -14.4375 8.765625 -14.4375 C 7.015625 -14.4375 5.65625 -13.847656 4.6875 -12.671875 C 3.71875 -11.492188 3.234375 -9.851562 3.234375 -7.75 Z M 3.234375 -7.75 "/></g></g></g><g fill="#ffffff" fill-opacity="1"><g transform="translate(276.301251, 323.22367)"><g><path d="M 12.3125 -3.4375 L 12.3125 -15.96875 L 14.34375 -15.96875 L 14.34375 0 L 12.1875 0 L 3.796875 -12.546875 L 3.796875 0 L 1.765625 0 L 1.765625 -15.96875 L 3.921875 -15.96875 Z M 12.3125 -3.4375 "/></g></g></g></svg>