<svg xmlns="http://www.w3.org/2000/svg" xmlns:xlink="http://www.w3.org/1999/xlink" width="500" zoomAndPan="magnify" viewBox="0 0 375 374.999991" height="500" preserveAspectRatio="xMidYMid meet" version="1.0"><defs><g/><clipPath id="4f202eb706"><path d="M 114.171875 91.605469 L 261.171875 91.605469 L 261.171875 222.855469 L 114.171875 222.855469 Z M 114.171875 91.605469 " clip-rule="nonzero"/></clipPath><clipPath id="4e0cf39cbb"><path d="M 166.535156 137.117188 L 187.585938 137.117188 L 187.585938 158.167969 L 166.535156 158.167969 Z M 166.535156 137.117188 " clip-rule="nonzero"/></clipPath><clipPath id="59f90bdc0c"><path d="M 177.0625 137.117188 C 171.25 137.117188 166.535156 141.828125 166.535156 147.644531 C 166.535156 153.457031 171.25 158.167969 177.0625 158.167969 C 182.875 158.167969 187.585938 153.457031 187.585938 147.644531 C 187.585938 141.828125 182.875 137.117188 177.0625 137.117188 Z M 177.0625 137.117188 " clip-rule="nonzero"/></clipPath><clipPath id="7e12aeec4a"><path d="M 167.285156 174.191406 L 188.335938 174.191406 L 188.335938 195.238281 L 167.285156 195.238281 Z M 167.285156 174.191406 " clip-rule="nonzero"/></clipPath><clipPath id="5cddee5b32"><path d="M 177.8125 174.191406 C 172 174.191406 167.285156 178.902344 167.285156 184.714844 C 167.285156 190.527344 172 195.238281 177.8125 195.238281 C 183.625 195.238281 188.335938 190.527344 188.335938 184.714844 C 188.335938 178.902344 183.625 174.191406 177.8125 174.191406 Z M 177.8125 174.191406 " clip-rule="nonzero"/></clipPath><clipPath id="1f494cc451"><path d="M 184.484375 155.917969 L 205.535156 155.917969 L 205.535156 176.96875 L 184.484375 176.96875 Z M 184.484375 155.917969 " clip-rule="nonzero"/></clipPath><clipPath id="7fb7672854"><path d="M 195.011719 155.917969 C 189.195312 155.917969 184.484375 160.628906 184.484375 166.441406 C 184.484375 172.253906 189.195312 176.96875 195.011719 176.96875 C 200.824219 176.96875 205.535156 172.253906 205.535156 166.441406 C 205.535156 160.628906 200.824219 155.917969 195.011719 155.917969 Z M 195.011719 155.917969 " clip-rule="nonzero"/></clipPath></defs><g clip-path="url(#4f202eb706)"><path fill="#14b7dc" d="M 183.976562 176.644531 L 187.410156 172.769531 C 189.039062 174.738281 191.308594 176.011719 193.984375 176.355469 L 193.984375 195.511719 L 175.25 206.160156 L 156.578125 216.925781 L 119.234375 195.511719 L 119.234375 152.570312 L 129.527344 146.609375 L 129.527344 140.824219 L 114.171875 149.679688 L 114.171875 198.40625 L 156.578125 222.769531 L 198.984375 198.40625 L 198.984375 175.664062 C 202.652344 174.15625 205.152344 170.570312 205.152344 166.402344 C 205.152344 160.90625 200.613281 156.390625 195.089844 156.390625 C 191.832031 156.390625 188.921875 157.894531 187.0625 160.269531 L 183.570312 156.273438 C 186.070312 154.597656 187.640625 151.878906 187.933594 148.808594 L 200.148438 141.75 L 218.824219 131.042969 L 256.167969 152.457031 L 256.167969 195.398438 L 237.4375 206.160156 L 218.765625 216.867188 L 200.089844 206.160156 L 197.183594 204.539062 L 192.121094 207.433594 L 218.765625 222.710938 L 261.171875 198.347656 L 261.171875 149.621094 L 218.765625 125.253906 L 186.828125 143.601562 C 185.199219 140.300781 181.765625 137.988281 177.8125 137.988281 C 172.285156 137.988281 167.746094 142.5 167.746094 148 C 167.746094 153.324219 171.996094 157.78125 177.402344 158.011719 L 177.402344 174.621094 C 173.796875 174.792969 170.773438 176.761719 169.027344 179.714844 L 156.460938 172.480469 L 137.789062 161.773438 L 137.789062 118.832031 L 156.460938 108.125 L 175.136719 97.417969 L 212.480469 118.832031 L 212.480469 125.023438 L 217.542969 122.128906 L 217.542969 115.9375 L 175.195312 91.691406 L 132.785156 116.054688 L 132.785156 164.78125 L 167.746094 184.921875 C 167.804688 190.421875 172.285156 194.875 177.8125 194.875 C 183.335938 194.875 187.875 190.363281 187.875 184.863281 C 187.992188 181.390625 186.363281 178.5 183.976562 176.644531 Z M 186.886719 172.015625 L 183.28125 176.066406 C 181.824219 175.140625 180.195312 174.621094 178.394531 174.5625 L 178.394531 158.011719 C 180.023438 157.953125 181.535156 157.492188 182.929688 156.738281 L 186.710938 160.964844 C 185.664062 162.46875 185.199219 164.378906 185.199219 166.289062 C 185.082031 168.488281 185.78125 170.453125 186.886719 172.015625 Z M 186.886719 172.015625 " fill-opacity="1" fill-rule="evenodd"/></g><g clip-path="url(#4e0cf39cbb)"><g clip-path="url(#59f90bdc0c)"><path fill="#6ee4ff" d="M 166.535156 137.117188 L 187.585938 137.117188 L 187.585938 158.167969 L 166.535156 158.167969 Z M 166.535156 137.117188 " fill-opacity="1" fill-rule="nonzero"/></g></g><g clip-path="url(#7e12aeec4a)"><g clip-path="url(#5cddee5b32)"><path fill="#6ee4ff" d="M 167.285156 174.191406 L 188.335938 174.191406 L 188.335938 195.238281 L 167.285156 195.238281 Z M 167.285156 174.191406 " fill-opacity="1" fill-rule="nonzero"/></g></g><g clip-path="url(#1f494cc451)"><g clip-path="url(#7fb7672854)"><path fill="#6ee4ff" d="M 184.484375 155.917969 L 205.535156 155.917969 L 205.535156 176.96875 L 184.484375 176.96875 Z M 184.484375 155.917969 " fill-opacity="1" fill-rule="nonzero"/></g></g><g fill="#06ecfc" fill-opacity="1"><g transform="translate(98.430959, 262.989153)"><g><path d="M 3.171875 -24.109375 L 13.046875 -24.109375 C 16.648438 -24.109375 19.628906 -22.96875 21.984375 -20.6875 C 24.335938 -18.414062 25.515625 -15.535156 25.515625 -12.046875 C 25.515625 -8.554688 24.332031 -5.675781 21.96875 -3.40625 C 19.601562 -1.132812 16.597656 0 12.953125 0 L 3.171875 0 Z M 7.234375 -20.453125 L 7.234375 -3.65625 L 13.15625 -3.65625 C 15.519531 -3.65625 17.488281 -4.441406 19.0625 -6.015625 C 20.632812 -7.585938 21.421875 -9.585938 21.421875 -12.015625 C 21.421875 -14.453125 20.609375 -16.46875 18.984375 -18.0625 C 17.367188 -19.65625 15.367188 -20.453125 12.984375 -20.453125 Z M 7.234375 -20.453125 "/></g></g></g><g fill="#06ecfc" fill-opacity="1"><g transform="translate(125.802824, 262.989153)"><g><path d="M 24.078125 0 L 20.015625 0 L 20.015625 -9.984375 L 7.234375 -9.984375 L 7.234375 0 L 3.171875 0 L 3.171875 -24.109375 L 7.234375 -24.109375 L 7.234375 -13.640625 L 20.015625 -13.640625 L 20.015625 -24.109375 L 24.078125 -24.109375 Z M 24.078125 0 "/></g></g></g><g fill="#06ecfc" fill-opacity="1"><g transform="translate(153.725562, 262.989153)"><g><path d="M 23.65625 -24.109375 L 23.65625 -9.984375 C 23.65625 -6.835938 22.722656 -4.359375 20.859375 -2.546875 C 19.003906 -0.734375 16.445312 0.171875 13.1875 0.171875 C 9.925781 0.171875 7.359375 -0.734375 5.484375 -2.546875 C 3.617188 -4.359375 2.6875 -6.835938 2.6875 -9.984375 L 2.6875 -24.109375 L 6.75 -24.109375 L 6.75 -9.984375 C 6.75 -7.960938 7.328125 -6.375 8.484375 -5.21875 C 9.648438 -4.0625 11.226562 -3.484375 13.21875 -3.484375 C 15.195312 -3.484375 16.753906 -4.054688 17.890625 -5.203125 C 19.023438 -6.347656 19.59375 -7.941406 19.59375 -9.984375 L 19.59375 -24.109375 Z M 23.65625 -24.109375 "/></g></g></g><g fill="#06ecfc" fill-opacity="1"><g transform="translate(180.718699, 262.989153)"><g><path d="M 19.625 -20.453125 L 11.984375 -20.453125 L 11.984375 0 L 7.921875 0 L 7.921875 -20.453125 L 0.3125 -20.453125 L 0.3125 -24.109375 L 19.625 -24.109375 Z M 19.625 -20.453125 "/></g></g></g><g fill="#06ecfc" fill-opacity="1"><g transform="translate(201.342336, 262.989153)"><g><path d="M 20.390625 -20.453125 L 7.234375 -20.453125 L 7.234375 -13.953125 L 19.015625 -13.953125 L 19.015625 -10.296875 L 7.234375 -10.296875 L 7.234375 -3.65625 L 20.796875 -3.65625 L 20.796875 0 L 3.171875 0 L 3.171875 -24.109375 L 20.390625 -24.109375 Z M 20.390625 -20.453125 "/></g></g></g><g fill="#06ecfc" fill-opacity="1"><g transform="translate(224.617054, 262.989153)"><g><path d="M 13.84375 -24.203125 C 15.539062 -24.203125 17.195312 -23.875 18.8125 -23.21875 C 20.4375 -22.570312 21.832031 -21.660156 23 -20.484375 L 20.625 -17.53125 C 19.75 -18.46875 18.710938 -19.210938 17.515625 -19.765625 C 16.328125 -20.316406 15.125 -20.59375 13.90625 -20.59375 C 11.5 -20.59375 9.460938 -19.769531 7.796875 -18.125 C 6.128906 -16.488281 5.296875 -14.488281 5.296875 -12.125 C 5.296875 -9.738281 6.128906 -7.722656 7.796875 -6.078125 C 9.460938 -4.429688 11.5 -3.609375 13.90625 -3.609375 C 16.414062 -3.609375 18.65625 -4.5625 20.625 -6.46875 L 23.03125 -3.78125 C 21.789062 -2.570312 20.34375 -1.609375 18.6875 -0.890625 C 17.039062 -0.179688 15.378906 0.171875 13.703125 0.171875 C 10.171875 0.171875 7.195312 -1.003906 4.78125 -3.359375 C 2.375 -5.710938 1.171875 -8.625 1.171875 -12.09375 C 1.171875 -15.507812 2.390625 -18.378906 4.828125 -20.703125 C 7.273438 -23.035156 10.28125 -24.203125 13.84375 -24.203125 Z M 13.84375 -24.203125 "/></g></g></g><g fill="#06ecfc" fill-opacity="1"><g transform="translate(249.303388, 262.989153)"><g><path d="M 24.078125 0 L 20.015625 0 L 20.015625 -9.984375 L 7.234375 -9.984375 L 7.234375 0 L 3.171875 0 L 3.171875 -24.109375 L 7.234375 -24.109375 L 7.234375 -13.640625 L 20.015625 -13.640625 L 20.015625 -24.109375 L 24.078125 -24.109375 Z M 24.078125 0 "/></g></g></g><g fill="#ffffff" fill-opacity="1"><g transform="translate(135.33776, 278.677863)"><g><path d="M 7.28125 -2.71875 C 7.175781 -1.8125 6.84375 -1.109375 6.28125 -0.609375 C 5.71875 -0.117188 4.972656 0.125 4.046875 0.125 C 3.035156 0.125 2.222656 -0.238281 1.609375 -0.96875 C 1.003906 -1.695312 0.703125 -2.664062 0.703125 -3.875 L 0.703125 -4.703125 C 0.703125 -5.492188 0.84375 -6.191406 1.125 -6.796875 C 1.40625 -7.398438 1.804688 -7.863281 2.328125 -8.1875 C 2.847656 -8.507812 3.453125 -8.671875 4.140625 -8.671875 C 5.046875 -8.671875 5.773438 -8.414062 6.328125 -7.90625 C 6.878906 -7.40625 7.195312 -6.703125 7.28125 -5.796875 L 6.15625 -5.796875 C 6.050781 -6.484375 5.832031 -6.976562 5.5 -7.28125 C 5.175781 -7.59375 4.722656 -7.75 4.140625 -7.75 C 3.421875 -7.75 2.851562 -7.476562 2.4375 -6.9375 C 2.03125 -6.40625 1.828125 -5.648438 1.828125 -4.671875 L 1.828125 -3.84375 C 1.828125 -2.914062 2.019531 -2.175781 2.40625 -1.625 C 2.800781 -1.082031 3.347656 -0.8125 4.046875 -0.8125 C 4.671875 -0.8125 5.148438 -0.953125 5.484375 -1.234375 C 5.816406 -1.515625 6.039062 -2.007812 6.15625 -2.71875 Z M 7.28125 -2.71875 "/></g></g></g><g fill="#ffffff" fill-opacity="1"><g transform="translate(146.398692, 278.677863)"><g><path d="M 7.578125 -4 C 7.578125 -3.164062 7.429688 -2.4375 7.140625 -1.8125 C 6.859375 -1.1875 6.457031 -0.707031 5.9375 -0.375 C 5.425781 -0.0390625 4.828125 0.125 4.140625 0.125 C 3.460938 0.125 2.863281 -0.0390625 2.34375 -0.375 C 1.820312 -0.707031 1.414062 -1.179688 1.125 -1.796875 C 0.84375 -2.410156 0.695312 -3.117188 0.6875 -3.921875 L 0.6875 -4.546875 C 0.6875 -5.367188 0.828125 -6.09375 1.109375 -6.71875 C 1.398438 -7.351562 1.804688 -7.835938 2.328125 -8.171875 C 2.859375 -8.503906 3.457031 -8.671875 4.125 -8.671875 C 4.8125 -8.671875 5.414062 -8.503906 5.9375 -8.171875 C 6.457031 -7.835938 6.859375 -7.359375 7.140625 -6.734375 C 7.429688 -6.109375 7.578125 -5.378906 7.578125 -4.546875 Z M 6.453125 -4.546875 C 6.453125 -5.566406 6.25 -6.347656 5.84375 -6.890625 C 5.4375 -7.429688 4.863281 -7.703125 4.125 -7.703125 C 3.414062 -7.703125 2.851562 -7.429688 2.4375 -6.890625 C 2.03125 -6.347656 1.820312 -5.59375 1.8125 -4.625 L 1.8125 -4 C 1.8125 -3.019531 2.019531 -2.25 2.4375 -1.6875 C 2.851562 -1.125 3.421875 -0.84375 4.140625 -0.84375 C 4.867188 -0.84375 5.429688 -1.109375 5.828125 -1.640625 C 6.234375 -2.171875 6.441406 -2.929688 6.453125 -3.921875 Z M 6.453125 -4.546875 "/></g></g></g><g fill="#ffffff" fill-opacity="1"><g transform="translate(157.900358, 278.677863)"><g><path d="M 7.5625 0 L 6.4375 0 L 2.125 -6.59375 L 2.125 0 L 1 0 L 1 -8.546875 L 2.125 -8.546875 L 6.4375 -1.9375 L 6.4375 -8.546875 L 7.5625 -8.546875 Z M 7.5625 0 "/></g></g></g><g fill="#ffffff" fill-opacity="1"><g transform="translate(169.707604, 278.677863)"><g><path d="M 7.5625 0 L 6.4375 0 L 2.125 -6.59375 L 2.125 0 L 1 0 L 1 -8.546875 L 2.125 -8.546875 L 6.4375 -1.9375 L 6.4375 -8.546875 L 7.5625 -8.546875 Z M 7.5625 0 "/></g></g></g><g fill="#ffffff" fill-opacity="1"><g transform="translate(181.514851, 278.677863)"><g><path d="M 5.828125 -3.953125 L 2.125 -3.953125 L 2.125 -0.921875 L 6.421875 -0.921875 L 6.421875 0 L 1 0 L 1 -8.546875 L 6.375 -8.546875 L 6.375 -7.625 L 2.125 -7.625 L 2.125 -4.875 L 5.828125 -4.875 Z M 5.828125 -3.953125 "/></g></g></g><g fill="#ffffff" fill-opacity="1"><g transform="translate(191.582641, 278.677863)"><g><path d="M 7.28125 -2.71875 C 7.175781 -1.8125 6.84375 -1.109375 6.28125 -0.609375 C 5.71875 -0.117188 4.972656 0.125 4.046875 0.125 C 3.035156 0.125 2.222656 -0.238281 1.609375 -0.96875 C 1.003906 -1.695312 0.703125 -2.664062 0.703125 -3.875 L 0.703125 -4.703125 C 0.703125 -5.492188 0.84375 -6.191406 1.125 -6.796875 C 1.40625 -7.398438 1.804688 -7.863281 2.328125 -8.1875 C 2.847656 -8.507812 3.453125 -8.671875 4.140625 -8.671875 C 5.046875 -8.671875 5.773438 -8.414062 6.328125 -7.90625 C 6.878906 -7.40625 7.195312 -6.703125 7.28125 -5.796875 L 6.15625 -5.796875 C 6.050781 -6.484375 5.832031 -6.976562 5.5 -7.28125 C 5.175781 -7.59375 4.722656 -7.75 4.140625 -7.75 C 3.421875 -7.75 2.851562 -7.476562 2.4375 -6.9375 C 2.03125 -6.40625 1.828125 -5.648438 1.828125 -4.671875 L 1.828125 -3.84375 C 1.828125 -2.914062 2.019531 -2.175781 2.40625 -1.625 C 2.800781 -1.082031 3.347656 -0.8125 4.046875 -0.8125 C 4.671875 -0.8125 5.148438 -0.953125 5.484375 -1.234375 C 5.816406 -1.515625 6.039062 -2.007812 6.15625 -2.71875 Z M 7.28125 -2.71875 "/></g></g></g><g fill="#ffffff" fill-opacity="1"><g transform="translate(202.643572, 278.677863)"><g><path d="M 6.90625 -7.625 L 4.15625 -7.625 L 4.15625 0 L 3.03125 0 L 3.03125 -7.625 L 0.28125 -7.625 L 0.28125 -8.546875 L 6.90625 -8.546875 Z M 6.90625 -7.625 "/></g></g></g><g fill="#ffffff" fill-opacity="1"><g transform="translate(213.052202, 278.677863)"><g><path d="M 2.203125 0 L 1.078125 0 L 1.078125 -8.546875 L 2.203125 -8.546875 Z M 2.203125 0 "/></g></g></g><g fill="#ffffff" fill-opacity="1"><g transform="translate(219.552938, 278.677863)"><g><path d="M 7.578125 -4 C 7.578125 -3.164062 7.429688 -2.4375 7.140625 -1.8125 C 6.859375 -1.1875 6.457031 -0.707031 5.9375 -0.375 C 5.425781 -0.0390625 4.828125 0.125 4.140625 0.125 C 3.460938 0.125 2.863281 -0.0390625 2.34375 -0.375 C 1.820312 -0.707031 1.414062 -1.179688 1.125 -1.796875 C 0.84375 -2.410156 0.695312 -3.117188 0.6875 -3.921875 L 0.6875 -4.546875 C 0.6875 -5.367188 0.828125 -6.09375 1.109375 -6.71875 C 1.398438 -7.351562 1.804688 -7.835938 2.328125 -8.171875 C 2.859375 -8.503906 3.457031 -8.671875 4.125 -8.671875 C 4.8125 -8.671875 5.414062 -8.503906 5.9375 -8.171875 C 6.457031 -7.835938 6.859375 -7.359375 7.140625 -6.734375 C 7.429688 -6.109375 7.578125 -5.378906 7.578125 -4.546875 Z M 6.453125 -4.546875 C 6.453125 -5.566406 6.25 -6.347656 5.84375 -6.890625 C 5.4375 -7.429688 4.863281 -7.703125 4.125 -7.703125 C 3.414062 -7.703125 2.851562 -7.429688 2.4375 -6.890625 C 2.03125 -6.347656 1.820312 -5.59375 1.8125 -4.625 L 1.8125 -4 C 1.8125 -3.019531 2.019531 -2.25 2.4375 -1.6875 C 2.851562 -1.125 3.421875 -0.84375 4.140625 -0.84375 C 4.867188 -0.84375 5.429688 -1.109375 5.828125 -1.640625 C 6.234375 -2.171875 6.441406 -2.929688 6.453125 -3.921875 Z M 6.453125 -4.546875 "/></g></g></g><g fill="#ffffff" fill-opacity="1"><g transform="translate(231.054604, 278.677863)"><g><path d="M 7.5625 0 L 6.4375 0 L 2.125 -6.59375 L 2.125 0 L 1 0 L 1 -8.546875 L 2.125 -8.546875 L 6.4375 -1.9375 L 6.4375 -8.546875 L 7.5625 -8.546875 Z M 7.5625 0 "/></g></g></g></svg>